<svg xmlns="http://www.w3.org/2000/svg" xmlns:xlink="http://www.w3.org/1999/xlink" width="500" zoomAndPan="magnify" viewBox="0 0 375 374.999991" height="500" preserveAspectRatio="xMidYMid meet" version="1.0"><defs><g/><clipPath id="id1"><path d="M 95.402344 18.75 L 145 18.75 L 145 69 L 95.402344 69 Z M 95.402344 18.75 " clip-rule="nonzero"/></clipPath><clipPath id="id2"><path d="M 230.652344 18.75 L 279.902344 18.75 L 279.902344 68.175781 L 230.652344 68.175781 Z M 230.652344 18.75 " clip-rule="nonzero"/></clipPath><clipPath id="id3"><path d="M 230.652344 154 L 279.902344 154 L 279.902344 203.25 L 230.652344 203.25 Z M 230.652344 154 " clip-rule="nonzero"/></clipPath><clipPath id="id4"><path d="M 95.402344 154 L 144.828125 154 L 144.828125 203.25 L 95.402344 203.25 Z M 95.402344 154 " clip-rule="nonzero"/></clipPath></defs><g clip-path="url(#id1)"><path fill="#3dfffc" d="M 100.792969 24.140625 L 144.664062 24.140625 L 144.664062 18.75 L 95.402344 18.75 L 95.402344 68.011719 L 100.792969 68.011719 L 100.792969 24.140625 " fill-opacity="1" fill-rule="nonzero"/></g><g clip-path="url(#id2)"><path fill="#3dfffc" d="M 230.652344 18.75 L 230.652344 24.140625 L 274.527344 24.140625 L 274.527344 68.011719 L 279.917969 68.011719 L 279.917969 18.75 L 230.652344 18.75 " fill-opacity="1" fill-rule="nonzero"/></g><g clip-path="url(#id3)"><path fill="#3dfffc" d="M 274.527344 197.871094 L 230.652344 197.871094 L 230.652344 203.261719 L 279.917969 203.261719 L 279.917969 154 L 274.527344 154 L 274.527344 197.871094 " fill-opacity="1" fill-rule="nonzero"/></g><g clip-path="url(#id4)"><path fill="#3dfffc" d="M 100.792969 154 L 95.402344 154 L 95.402344 203.261719 L 144.664062 203.261719 L 144.664062 197.871094 L 100.792969 197.871094 L 100.792969 154 " fill-opacity="1" fill-rule="nonzero"/></g><path fill="#3dfffc" d="M 212.953125 55 L 211.28125 56.21875 L 210.695312 56.644531 L 206.859375 59.4375 C 206.449219 59.734375 206.359375 60.304688 206.652344 60.71875 C 215.824219 73.640625 216.214844 86.945312 216.136719 90.53125 C 216.128906 91.046875 216.542969 91.46875 217.058594 91.46875 L 218.816406 91.46875 C 219.191406 91.46875 219.535156 91.234375 219.671875 90.882812 C 220.820312 87.960938 221.785156 85.253906 222.585938 82.734375 C 223.847656 83.09375 224.488281 84.09375 224.664062 85.886719 C 224.835938 87.636719 224.476562 90.011719 223.679688 92.648438 L 226.882812 92.648438 C 227.550781 90.222656 227.96875 87.617188 227.683594 85.324219 C 227.332031 82.4375 225.832031 80.511719 223.476562 79.808594 C 230.152344 56.574219 222.140625 51.417969 219.957031 50.472656 C 219.660156 50.34375 219.3125 50.378906 219.046875 50.570312 L 213.285156 54.757812 L 212.953125 55 " fill-opacity="1" fill-rule="nonzero"/><path fill="#3dfffc" d="M 151.636719 92.648438 C 150.84375 90.011719 150.480469 87.636719 150.652344 85.886719 C 150.832031 84.066406 151.488281 83.070312 152.785156 82.722656 C 153.832031 86.710938 154.941406 89.6875 155.414062 90.886719 C 155.550781 91.238281 155.890625 91.46875 156.269531 91.46875 L 157.851562 91.46875 C 158.394531 91.46875 158.820312 90.992188 158.761719 90.453125 C 156.300781 66.453125 175 72.335938 176.542969 72.859375 C 176.613281 72.882812 176.6875 72.898438 176.761719 72.90625 C 197.28125 74.722656 202.914062 62.367188 203.617188 60.589844 C 203.671875 60.445312 203.761719 60.320312 203.882812 60.222656 L 209.300781 55.703125 L 211.769531 53.648438 L 217.777344 48.640625 C 218.0625 48.402344 218.175781 48.015625 218.066406 47.660156 C 213.671875 32.988281 179.671875 35.347656 179.671875 35.347656 C 147.945312 38.699219 148.636719 64.308594 152.0625 79.75 C 149.582031 80.390625 148 82.34375 147.632812 85.324219 C 147.351562 87.617188 147.769531 90.222656 148.4375 92.648438 L 151.636719 92.648438 " fill-opacity="1" fill-rule="nonzero"/><path fill="#3dfffc" d="M 187.660156 151.769531 C 168.347656 151.125 163.675781 138.925781 162.550781 132.796875 C 165.210938 129.921875 168.3125 123.191406 169.519531 120.441406 C 172.417969 122.847656 175.238281 124.429688 177.597656 125.453125 C 182.925781 127.773438 187.054688 127.859375 187.621094 127.859375 L 187.695312 127.859375 C 188.261719 127.859375 192.394531 127.773438 197.71875 125.453125 C 199.992188 124.464844 202.6875 122.96875 205.472656 120.710938 C 206.792969 123.546875 209.820312 129.664062 212.726562 133.027344 C 211.523438 139.226562 206.734375 151.128906 187.660156 151.769531 Z M 244.175781 148.582031 L 213.558594 129.613281 C 211.25 126.332031 208.832031 121.449219 207.632812 118.8125 C 210.035156 116.535156 212.441406 113.652344 214.644531 110.011719 C 214.757812 109.828125 214.960938 109.730469 215.171875 109.757812 C 215.503906 109.796875 215.855469 109.777344 216.214844 109.6875 C 217.390625 109.390625 218.589844 108.34375 219.699219 107.027344 L 212.828125 107.027344 C 208.707031 114.417969 203.269531 119.652344 196.644531 122.578125 C 191.597656 124.808594 187.722656 124.789062 187.683594 124.792969 L 187.621094 124.792969 C 187.066406 124.792969 172.277344 124.578125 162.488281 107.027344 L 155.617188 107.027344 C 156.726562 108.34375 157.925781 109.390625 159.097656 109.6875 C 159.460938 109.777344 159.816406 109.796875 160.148438 109.757812 C 160.359375 109.730469 160.5625 109.828125 160.671875 110.011719 C 162.78125 113.496094 165.074219 116.285156 167.375 118.511719 L 167.347656 118.503906 C 165.808594 122.121094 163.316406 127.160156 161.4375 129.8125 L 131.144531 148.582031 C 115.1875 154.457031 114.328125 174.191406 114.328125 174.191406 C 132.007812 183.246094 187.660156 184.109375 187.660156 184.109375 C 187.660156 184.109375 243.3125 183.246094 260.992188 174.191406 C 260.992188 174.191406 260.132812 154.457031 244.175781 148.582031 " fill-opacity="1" fill-rule="nonzero"/><path fill="#3dfffc" d="M 99.191406 102.53125 L 109.300781 102.53125 L 109.300781 97.140625 L 99.191406 97.140625 L 99.191406 102.53125 " fill-opacity="1" fill-rule="nonzero"/><path fill="#3dfffc" d="M 206.589844 102.53125 L 228.15625 102.53125 L 228.15625 97.140625 L 206.589844 97.140625 L 206.589844 102.53125 " fill-opacity="1" fill-rule="nonzero"/><path fill="#3dfffc" d="M 236.304688 102.53125 L 257.867188 102.53125 L 257.867188 97.140625 L 236.304688 97.140625 L 236.304688 102.53125 " fill-opacity="1" fill-rule="nonzero"/><path fill="#3dfffc" d="M 198.441406 97.140625 L 176.875 97.140625 L 176.875 102.53125 L 198.441406 102.53125 L 198.441406 97.140625 " fill-opacity="1" fill-rule="nonzero"/><path fill="#3dfffc" d="M 147.160156 102.53125 L 168.730469 102.53125 L 168.730469 97.140625 L 147.160156 97.140625 L 147.160156 102.53125 " fill-opacity="1" fill-rule="nonzero"/><path fill="#3dfffc" d="M 139.015625 97.140625 L 117.449219 97.140625 L 117.449219 102.53125 L 139.015625 102.53125 L 139.015625 97.140625 " fill-opacity="1" fill-rule="nonzero"/><path fill="#3dfffc" d="M 276.125 97.140625 L 266.015625 97.140625 L 266.015625 102.53125 L 276.125 102.53125 L 276.125 97.140625 " fill-opacity="1" fill-rule="nonzero"/><g fill="#ffffff" fill-opacity="1"><g transform="translate(80.987674, 267.850274)"><g><path d="M 31.78125 -13.296875 L 36.078125 0 L 47.667969 0 L 30.894531 -47.054688 L 17.664062 -47.054688 L 0.683594 0 L 12.070312 0 L 16.433594 -13.296875 Z M 24.140625 -37.78125 L 29.121094 -21.6875 L 19.09375 -21.6875 Z M 24.140625 -37.78125 "/></g></g></g><g fill="#ffffff" fill-opacity="1"><g transform="translate(131.996515, 267.850274)"><g><path d="M 34.644531 -25.4375 C 39.351562 -27.074219 41.804688 -30.347656 41.804688 -34.917969 C 41.804688 -41.191406 37.441406 -45.828125 29.800781 -46.785156 C 27.414062 -47.054688 26.1875 -47.054688 23.734375 -47.054688 L 5.796875 -47.054688 L 5.796875 0 L 23.664062 0 C 26.460938 0 28.027344 0 30.347656 -0.273438 C 36.691406 -1.089844 43.511719 -5.386719 43.511719 -14.117188 C 43.511719 -20.050781 40.644531 -23.867188 34.644531 -25.4375 Z M 16.503906 -38.734375 L 22.710938 -38.734375 C 23.800781 -38.734375 25.027344 -38.667969 25.984375 -38.53125 C 28.777344 -38.121094 30.621094 -36.621094 30.621094 -33.484375 C 30.621094 -30.347656 28.984375 -28.777344 26.050781 -28.300781 C 25.097656 -28.164062 24.003906 -28.097656 22.914062 -28.097656 L 16.503906 -28.097656 Z M 27.074219 -8.457031 C 26.1875 -8.386719 25.097656 -8.386719 24.003906 -8.386719 L 16.503906 -8.386719 L 16.503906 -20.253906 L 23.597656 -20.253906 C 24.6875 -20.253906 25.777344 -20.253906 26.871094 -20.117188 C 29.871094 -19.84375 32.324219 -18.074219 32.324219 -14.253906 C 32.324219 -10.707031 29.871094 -8.660156 27.074219 -8.457031 Z M 27.074219 -8.457031 "/></g></g></g><g fill="#ffffff" fill-opacity="1"><g transform="translate(181.505118, 267.850274)"><g><path d="M 16.503906 0 L 16.503906 -47.054688 L 5.796875 -47.054688 L 5.796875 0 Z M 16.503906 0 "/></g></g></g><g fill="#ffffff" fill-opacity="1"><g transform="translate(206.055213, 267.850274)"><g><path d="M 21.824219 -48.011719 C 12.683594 -48.011719 4.570312 -42.894531 4.570312 -34.097656 C 4.570312 -25.097656 10.707031 -21.753906 20.800781 -19.230469 C 27.210938 -17.730469 29.394531 -15.480469 29.394531 -12.207031 C 29.394531 -9.003906 26.324219 -6.957031 22.4375 -6.957031 C 18.140625 -6.957031 14.390625 -9.273438 13.433594 -14.117188 L 2.660156 -14.117188 C 3.476562 -3.957031 11.117188 0.953125 22.640625 0.953125 C 32.050781 0.953125 40.578125 -3.957031 40.578125 -13.09375 C 40.578125 -20.527344 36.078125 -25.4375 25.710938 -27.894531 C 18.140625 -29.664062 15.753906 -31.574219 15.753906 -35.121094 C 15.753906 -38.53125 18.140625 -40.101562 21.480469 -40.101562 C 25.984375 -40.101562 28.4375 -37.304688 28.984375 -32.9375 L 39.757812 -32.9375 C 38.734375 -41.464844 33.554688 -48.011719 21.824219 -48.011719 Z M 21.824219 -48.011719 "/></g></g></g><g fill="#ffffff" fill-opacity="1"><g transform="translate(252.017795, 267.850274)"><g><path d="M 21.824219 -48.011719 C 12.683594 -48.011719 4.570312 -42.894531 4.570312 -34.097656 C 4.570312 -25.097656 10.707031 -21.753906 20.800781 -19.230469 C 27.210938 -17.730469 29.394531 -15.480469 29.394531 -12.207031 C 29.394531 -9.003906 26.324219 -6.957031 22.4375 -6.957031 C 18.140625 -6.957031 14.390625 -9.273438 13.433594 -14.117188 L 2.660156 -14.117188 C 3.476562 -3.957031 11.117188 0.953125 22.640625 0.953125 C 32.050781 0.953125 40.578125 -3.957031 40.578125 -13.09375 C 40.578125 -20.527344 36.078125 -25.4375 25.710938 -27.894531 C 18.140625 -29.664062 15.753906 -31.574219 15.753906 -35.121094 C 15.753906 -38.53125 18.140625 -40.101562 21.480469 -40.101562 C 25.984375 -40.101562 28.4375 -37.304688 28.984375 -32.9375 L 39.757812 -32.9375 C 38.734375 -41.464844 33.554688 -48.011719 21.824219 -48.011719 Z M 21.824219 -48.011719 "/></g></g></g><g fill="#3dfffc" fill-opacity="1"><g transform="translate(95.040398, 317.643148)"><g><path d="M 8.746094 -10.644531 C 11.675781 -9.945312 13.671875 -9.179688 14.734375 -8.316406 C 15.46875 -7.71875 15.832031 -6.953125 15.832031 -6.019531 C 15.832031 -5.089844 15.632812 -4.324219 15.234375 -3.792969 C 14.234375 -2.394531 12.441406 -1.695312 9.910156 -1.695312 C 6.386719 -1.695312 4.390625 -2.894531 3.957031 -5.289062 L 1.230469 -5.289062 C 2.027344 -1.464844 4.921875 0.433594 9.910156 0.433594 C 12.140625 0.433594 14.003906 -0.0351562 15.5 -1.03125 C 17.296875 -2.195312 18.226562 -3.925781 18.226562 -6.1875 C 18.226562 -8.050781 17.496094 -9.480469 16.03125 -10.476562 C 15 -11.210938 13.339844 -11.875 11.042969 -12.472656 C 8.714844 -13.070312 7.21875 -13.570312 6.519531 -13.9375 C 4.988281 -14.703125 4.222656 -15.765625 4.257812 -17.164062 C 4.257812 -17.894531 4.390625 -18.527344 4.722656 -18.992188 C 5.589844 -20.289062 7.117188 -20.957031 9.3125 -20.957031 C 12.40625 -20.957031 14.167969 -19.957031 14.636719 -18.027344 L 17.164062 -18.027344 C 16.332031 -21.289062 13.703125 -22.949219 9.3125 -22.949219 C 7.316406 -22.949219 5.554688 -22.417969 4.089844 -21.355469 C 2.59375 -20.289062 1.828125 -18.726562 1.828125 -16.597656 C 1.828125 -13.703125 4.15625 -11.707031 8.746094 -10.644531 Z M 8.746094 -10.644531 "/></g></g></g><g fill="#3dfffc" fill-opacity="1"><g transform="translate(120.150585, 317.643148)"><g><path d="M 15.933594 0 L 15.933594 -2.160156 L 4.824219 -2.160156 L 4.824219 -10.210938 L 15.601562 -10.210938 L 15.601562 -12.40625 L 4.824219 -12.40625 L 4.824219 -20.457031 L 15.933594 -20.457031 L 15.933594 -22.617188 L 2.496094 -22.617188 L 2.496094 0 Z M 15.933594 0 "/></g></g></g><g fill="#3dfffc" fill-opacity="1"><g transform="translate(144.595677, 317.643148)"><g><path d="M 23.25 -6.917969 L 20.6875 -6.917969 C 19.890625 -5.453125 18.792969 -4.257812 17.394531 -3.394531 C 16 -2.496094 14.4375 -2.0625 12.773438 -2.0625 C 10.277344 -2.0625 8.148438 -2.960938 6.386719 -4.824219 C 4.65625 -6.585938 3.824219 -8.746094 3.824219 -11.277344 C 3.824219 -13.804688 4.65625 -15.964844 6.386719 -17.761719 C 7.183594 -18.59375 8.148438 -19.257812 9.246094 -19.757812 C 10.3125 -20.257812 11.375 -20.523438 12.441406 -20.523438 C 13.472656 -20.523438 14.371094 -20.390625 15.167969 -20.15625 C 17.59375 -19.425781 19.425781 -17.960938 20.65625 -15.734375 L 23.21875 -15.734375 C 22.351562 -17.863281 20.988281 -19.589844 19.09375 -20.921875 C 17.164062 -22.253906 15.066406 -22.917969 12.773438 -22.917969 C 9.613281 -22.917969 6.953125 -21.753906 4.757812 -19.457031 C 3.726562 -18.394531 2.925781 -17.128906 2.363281 -15.734375 C 1.761719 -14.335938 1.496094 -12.839844 1.496094 -11.277344 C 1.496094 -8.082031 2.5625 -5.386719 4.757812 -3.125 C 6.953125 -0.796875 9.613281 0.332031 12.773438 0.332031 C 15.066406 0.332031 17.164062 -0.332031 19.125 -1.664062 C 21.023438 -2.992188 22.386719 -4.722656 23.25 -6.917969 Z M 23.25 -6.917969 "/></g></g></g><g fill="#3dfffc" fill-opacity="1"><g transform="translate(174.86032, 317.643148)"><g><path d="M 18.859375 -7.484375 L 18.859375 -22.617188 L 16.53125 -22.617188 L 16.53125 -7.152344 C 16.53125 -6.21875 16.363281 -5.453125 16.03125 -4.824219 C 15.066406 -2.960938 13.203125 -2.027344 10.445312 -2.027344 C 8.648438 -2.027344 7.21875 -2.429688 6.152344 -3.226562 C 4.921875 -4.125 4.324219 -5.421875 4.324219 -7.152344 L 4.324219 -22.617188 L 1.996094 -22.617188 L 1.996094 -7.484375 C 1.996094 -5.023438 2.792969 -3.09375 4.390625 -1.695312 C 5.886719 -0.367188 7.917969 0.300781 10.445312 0.300781 C 12.9375 0.300781 14.933594 -0.367188 16.464844 -1.695312 C 18.0625 -3.09375 18.859375 -5.023438 18.859375 -7.484375 Z M 18.859375 -7.484375 "/></g></g></g><g fill="#3dfffc" fill-opacity="1"><g transform="translate(201.733005, 317.643148)"><g><path d="M 4.824219 -11.175781 L 4.824219 -20.390625 L 10.078125 -20.390625 C 11.441406 -20.390625 12.539062 -19.957031 13.371094 -19.09375 C 14.167969 -18.226562 14.601562 -17.164062 14.601562 -15.832031 C 14.601562 -14.503906 14.167969 -13.40625 13.304688 -12.507812 C 12.441406 -11.609375 11.375 -11.175781 10.078125 -11.175781 Z M 16.929688 -15.800781 C 16.929688 -17.730469 16.199219 -19.390625 14.800781 -20.6875 C 13.4375 -21.953125 11.742188 -22.617188 9.746094 -22.617188 L 2.496094 -22.617188 L 2.496094 0 L 4.824219 0 L 4.824219 -8.949219 L 7.515625 -8.949219 L 14.167969 0 L 17.296875 0 L 10.3125 -8.949219 C 12.074219 -9.046875 13.570312 -9.679688 14.800781 -10.84375 C 16.199219 -12.140625 16.929688 -13.804688 16.929688 -15.800781 Z M 16.929688 -15.800781 "/></g></g></g><g fill="#3dfffc" fill-opacity="1"><g transform="translate(225.845563, 317.643148)"><g><path d="M 4.824219 0 L 4.824219 -22.617188 L 2.496094 -22.617188 L 2.496094 0 Z M 4.824219 0 "/></g></g></g><g fill="#3dfffc" fill-opacity="1"><g transform="translate(239.183633, 317.643148)"><g><path d="M 0.664062 -20.523438 L 6.152344 -20.523438 L 6.152344 -0.0664062 L 8.480469 -0.0664062 L 8.480469 -20.523438 L 13.96875 -20.523438 L 13.96875 -22.683594 L 0.664062 -22.683594 Z M 0.664062 -20.523438 "/></g></g></g><g fill="#3dfffc" fill-opacity="1"><g transform="translate(259.837708, 317.643148)"><g><path d="M 11.242188 -10.644531 L 19.789062 -22.617188 L 16.832031 -22.617188 L 10.078125 -12.9375 L 3.328125 -22.617188 L 0.332031 -22.617188 L 8.914062 -10.609375 L 8.914062 0 L 11.242188 0 Z M 11.242188 -10.644531 "/></g></g></g><g fill="#3dfffc" fill-opacity="1"><g transform="translate(79.88962, 347.773508)"><g><path d="M 8.746094 -10.644531 C 11.675781 -9.945312 13.671875 -9.179688 14.734375 -8.316406 C 15.46875 -7.71875 15.832031 -6.953125 15.832031 -6.019531 C 15.832031 -5.089844 15.632812 -4.324219 15.234375 -3.792969 C 14.234375 -2.394531 12.441406 -1.695312 9.910156 -1.695312 C 6.386719 -1.695312 4.390625 -2.894531 3.957031 -5.289062 L 1.230469 -5.289062 C 2.027344 -1.464844 4.921875 0.433594 9.910156 0.433594 C 12.140625 0.433594 14.003906 -0.0351562 15.5 -1.03125 C 17.296875 -2.195312 18.226562 -3.925781 18.226562 -6.1875 C 18.226562 -8.050781 17.496094 -9.480469 16.03125 -10.476562 C 15 -11.210938 13.339844 -11.875 11.042969 -12.472656 C 8.714844 -13.070312 7.21875 -13.570312 6.519531 -13.9375 C 4.988281 -14.703125 4.222656 -15.765625 4.257812 -17.164062 C 4.257812 -17.894531 4.390625 -18.527344 4.722656 -18.992188 C 5.589844 -20.289062 7.117188 -20.957031 9.3125 -20.957031 C 12.40625 -20.957031 14.167969 -19.957031 14.636719 -18.027344 L 17.164062 -18.027344 C 16.332031 -21.289062 13.703125 -22.949219 9.3125 -22.949219 C 7.316406 -22.949219 5.554688 -22.417969 4.089844 -21.355469 C 2.59375 -20.289062 1.828125 -18.726562 1.828125 -16.597656 C 1.828125 -13.703125 4.15625 -11.707031 8.746094 -10.644531 Z M 8.746094 -10.644531 "/></g></g></g><g fill="#3dfffc" fill-opacity="1"><g transform="translate(104.999807, 347.773508)"><g><path d="M 22.417969 -11.375 C 22.417969 -8.78125 21.488281 -6.585938 19.691406 -4.789062 C 17.863281 -2.960938 15.667969 -2.0625 13.105469 -2.0625 C 10.542969 -2.0625 8.347656 -2.960938 6.550781 -4.789062 C 4.722656 -6.585938 3.824219 -8.78125 3.824219 -11.375 C 3.824219 -13.902344 4.722656 -16.097656 6.550781 -17.929688 C 8.347656 -19.722656 10.542969 -20.65625 13.105469 -20.65625 C 15.667969 -20.65625 17.863281 -19.722656 19.691406 -17.929688 C 21.488281 -16.097656 22.417969 -13.902344 22.417969 -11.375 Z M 24.746094 -11.375 C 24.746094 -12.972656 24.414062 -14.46875 23.816406 -15.898438 C 23.21875 -17.296875 22.386719 -18.527344 21.320312 -19.589844 C 20.257812 -20.621094 19.027344 -21.453125 17.628906 -22.054688 C 16.199219 -22.652344 14.703125 -22.984375 13.105469 -22.984375 C 11.507812 -22.984375 9.980469 -22.652344 8.582031 -22.054688 C 7.183594 -21.453125 5.953125 -20.621094 4.890625 -19.589844 C 3.824219 -18.527344 2.992188 -17.296875 2.394531 -15.898438 C 1.796875 -14.46875 1.496094 -12.972656 1.496094 -11.375 C 1.496094 -9.777344 1.796875 -8.25 2.394531 -6.851562 C 2.992188 -5.421875 3.824219 -4.191406 4.890625 -3.125 C 5.953125 -2.0625 7.183594 -1.230469 8.582031 -0.632812 C 9.980469 -0.0351562 11.507812 0.265625 13.105469 0.265625 C 14.703125 0.265625 16.199219 -0.0351562 17.628906 -0.632812 C 19.027344 -1.230469 20.257812 -2.0625 21.320312 -3.125 C 22.386719 -4.191406 23.21875 -5.421875 23.816406 -6.851562 C 24.414062 -8.25 24.746094 -9.777344 24.746094 -11.375 Z M 24.746094 -11.375 "/></g></g></g><g fill="#3dfffc" fill-opacity="1"><g transform="translate(137.259736, 347.773508)"><g><path d="M 4.824219 -2.328125 L 4.824219 -22.617188 L 2.496094 -22.617188 L 2.496094 0 L 12.90625 0 L 12.90625 -2.328125 Z M 4.824219 -2.328125 "/></g></g></g><g fill="#3dfffc" fill-opacity="1"><g transform="translate(156.849671, 347.773508)"><g><path d="M 18.859375 -7.484375 L 18.859375 -22.617188 L 16.53125 -22.617188 L 16.53125 -7.152344 C 16.53125 -6.21875 16.363281 -5.453125 16.03125 -4.824219 C 15.066406 -2.960938 13.203125 -2.027344 10.445312 -2.027344 C 8.648438 -2.027344 7.21875 -2.429688 6.152344 -3.226562 C 4.921875 -4.125 4.324219 -5.421875 4.324219 -7.152344 L 4.324219 -22.617188 L 1.996094 -22.617188 L 1.996094 -7.484375 C 1.996094 -5.023438 2.792969 -3.09375 4.390625 -1.695312 C 5.886719 -0.367188 7.917969 0.300781 10.445312 0.300781 C 12.9375 0.300781 14.933594 -0.367188 16.464844 -1.695312 C 18.0625 -3.09375 18.859375 -5.023438 18.859375 -7.484375 Z M 18.859375 -7.484375 "/></g></g></g><g fill="#3dfffc" fill-opacity="1"><g transform="translate(183.722355, 347.773508)"><g><path d="M 0.664062 -20.523438 L 6.152344 -20.523438 L 6.152344 -0.0664062 L 8.480469 -0.0664062 L 8.480469 -20.523438 L 13.96875 -20.523438 L 13.96875 -22.683594 L 0.664062 -22.683594 Z M 0.664062 -20.523438 "/></g></g></g><g fill="#3dfffc" fill-opacity="1"><g transform="translate(204.376444, 347.773508)"><g><path d="M 4.824219 0 L 4.824219 -22.617188 L 2.496094 -22.617188 L 2.496094 0 Z M 4.824219 0 "/></g></g></g><g fill="#3dfffc" fill-opacity="1"><g transform="translate(217.714514, 347.773508)"><g><path d="M 22.417969 -11.375 C 22.417969 -8.78125 21.488281 -6.585938 19.691406 -4.789062 C 17.863281 -2.960938 15.667969 -2.0625 13.105469 -2.0625 C 10.542969 -2.0625 8.347656 -2.960938 6.550781 -4.789062 C 4.722656 -6.585938 3.824219 -8.78125 3.824219 -11.375 C 3.824219 -13.902344 4.722656 -16.097656 6.550781 -17.929688 C 8.347656 -19.722656 10.542969 -20.65625 13.105469 -20.65625 C 15.667969 -20.65625 17.863281 -19.722656 19.691406 -17.929688 C 21.488281 -16.097656 22.417969 -13.902344 22.417969 -11.375 Z M 24.746094 -11.375 C 24.746094 -12.972656 24.414062 -14.46875 23.816406 -15.898438 C 23.21875 -17.296875 22.386719 -18.527344 21.320312 -19.589844 C 20.257812 -20.621094 19.027344 -21.453125 17.628906 -22.054688 C 16.199219 -22.652344 14.703125 -22.984375 13.105469 -22.984375 C 11.507812 -22.984375 9.980469 -22.652344 8.582031 -22.054688 C 7.183594 -21.453125 5.953125 -20.621094 4.890625 -19.589844 C 3.824219 -18.527344 2.992188 -17.296875 2.394531 -15.898438 C 1.796875 -14.46875 1.496094 -12.972656 1.496094 -11.375 C 1.496094 -9.777344 1.796875 -8.25 2.394531 -6.851562 C 2.992188 -5.421875 3.824219 -4.191406 4.890625 -3.125 C 5.953125 -2.0625 7.183594 -1.230469 8.582031 -0.632812 C 9.980469 -0.0351562 11.507812 0.265625 13.105469 0.265625 C 14.703125 0.265625 16.199219 -0.0351562 17.628906 -0.632812 C 19.027344 -1.230469 20.257812 -2.0625 21.320312 -3.125 C 22.386719 -4.191406 23.21875 -5.421875 23.816406 -6.851562 C 24.414062 -8.25 24.746094 -9.777344 24.746094 -11.375 Z M 24.746094 -11.375 "/></g></g></g><g fill="#3dfffc" fill-opacity="1"><g transform="translate(249.974449, 347.773508)"><g><path d="M 4.824219 -16.664062 L 17.527344 1.398438 L 17.527344 -22.617188 L 15.199219 -22.617188 L 15.199219 -5.988281 L 2.496094 -24.046875 L 2.496094 0 L 4.824219 0 Z M 4.824219 -16.664062 "/></g></g></g><g fill="#3dfffc" fill-opacity="1"><g transform="translate(276.015769, 347.773508)"><g><path d="M 8.746094 -10.644531 C 11.675781 -9.945312 13.671875 -9.179688 14.734375 -8.316406 C 15.46875 -7.71875 15.832031 -6.953125 15.832031 -6.019531 C 15.832031 -5.089844 15.632812 -4.324219 15.234375 -3.792969 C 14.234375 -2.394531 12.441406 -1.695312 9.910156 -1.695312 C 6.386719 -1.695312 4.390625 -2.894531 3.957031 -5.289062 L 1.230469 -5.289062 C 2.027344 -1.464844 4.921875 0.433594 9.910156 0.433594 C 12.140625 0.433594 14.003906 -0.0351562 15.5 -1.03125 C 17.296875 -2.195312 18.226562 -3.925781 18.226562 -6.1875 C 18.226562 -8.050781 17.496094 -9.480469 16.03125 -10.476562 C 15 -11.210938 13.339844 -11.875 11.042969 -12.472656 C 8.714844 -13.070312 7.21875 -13.570312 6.519531 -13.9375 C 4.988281 -14.703125 4.222656 -15.765625 4.257812 -17.164062 C 4.257812 -17.894531 4.390625 -18.527344 4.722656 -18.992188 C 5.589844 -20.289062 7.117188 -20.957031 9.3125 -20.957031 C 12.40625 -20.957031 14.167969 -19.957031 14.636719 -18.027344 L 17.164062 -18.027344 C 16.332031 -21.289062 13.703125 -22.949219 9.3125 -22.949219 C 7.316406 -22.949219 5.554688 -22.417969 4.089844 -21.355469 C 2.59375 -20.289062 1.828125 -18.726562 1.828125 -16.597656 C 1.828125 -13.703125 4.15625 -11.707031 8.746094 -10.644531 Z M 8.746094 -10.644531 "/></g></g></g></svg>