<svg xmlns="http://www.w3.org/2000/svg" xmlns:xlink="http://www.w3.org/1999/xlink" width="500" zoomAndPan="magnify" viewBox="0 0 375 374.999991" height="500" preserveAspectRatio="xMidYMid meet" version="1.0"><defs><g/><clipPath id="id1"><path d="M 20.382812 121.859375 L 57 121.859375 L 57 158 L 20.382812 158 Z M 20.382812 121.859375 " clip-rule="nonzero"/></clipPath><clipPath id="id2"><path d="M 118.246094 121.859375 L 153.882812 121.859375 L 153.882812 157.625 L 118.246094 157.625 Z M 118.246094 121.859375 " clip-rule="nonzero"/></clipPath><clipPath id="id3"><path d="M 118.246094 219.398438 L 153.882812 219.398438 L 153.882812 255.359375 L 118.246094 255.359375 Z M 118.246094 219.398438 " clip-rule="nonzero"/></clipPath><clipPath id="id4"><path d="M 20.382812 219.398438 L 56.144531 219.398438 L 56.144531 255.359375 L 20.382812 255.359375 Z M 20.382812 219.398438 " clip-rule="nonzero"/></clipPath></defs><g clip-path="url(#id1)"><path fill="#3dfffc" d="M 24.28125 125.761719 L 56.027344 125.761719 L 56.027344 121.859375 L 20.382812 121.859375 L 20.382812 157.503906 L 24.28125 157.503906 L 24.28125 125.761719 " fill-opacity="1" fill-rule="nonzero"/></g><g clip-path="url(#id2)"><path fill="#3dfffc" d="M 118.246094 121.859375 L 118.246094 125.761719 L 149.992188 125.761719 L 149.992188 157.503906 L 153.894531 157.503906 L 153.894531 121.859375 L 118.246094 121.859375 " fill-opacity="1" fill-rule="nonzero"/></g><g clip-path="url(#id3)"><path fill="#3dfffc" d="M 149.992188 251.46875 L 118.246094 251.46875 L 118.246094 255.371094 L 153.894531 255.371094 L 153.894531 219.722656 L 149.992188 219.722656 L 149.992188 251.46875 " fill-opacity="1" fill-rule="nonzero"/></g><g clip-path="url(#id4)"><path fill="#3dfffc" d="M 24.28125 219.722656 L 20.382812 219.722656 L 20.382812 255.371094 L 56.027344 255.371094 L 56.027344 251.46875 L 24.28125 251.46875 L 24.28125 219.722656 " fill-opacity="1" fill-rule="nonzero"/></g><path fill="#3dfffc" d="M 105.4375 148.089844 L 104.230469 148.972656 L 103.804688 149.28125 L 101.027344 151.300781 C 100.730469 151.515625 100.667969 151.929688 100.878906 152.226562 C 107.515625 161.578125 107.800781 171.203125 107.742188 173.800781 C 107.734375 174.171875 108.035156 174.476562 108.410156 174.476562 L 109.679688 174.476562 C 109.953125 174.476562 110.199219 174.308594 110.300781 174.054688 C 111.132812 171.941406 111.828125 169.980469 112.410156 168.15625 C 113.320312 168.417969 113.785156 169.140625 113.910156 170.4375 C 114.039062 171.703125 113.777344 173.421875 113.199219 175.332031 L 115.515625 175.332031 C 116 173.574219 116.304688 171.691406 116.097656 170.03125 C 115.84375 167.941406 114.757812 166.550781 113.054688 166.042969 C 117.882812 149.230469 112.085938 145.496094 110.507812 144.8125 C 110.289062 144.71875 110.039062 144.746094 109.847656 144.886719 L 105.679688 147.914062 L 105.4375 148.089844 " fill-opacity="1" fill-rule="nonzero"/><path fill="#3dfffc" d="M 61.070312 175.332031 C 60.496094 173.421875 60.234375 171.703125 60.359375 170.4375 C 60.492188 169.121094 60.964844 168.398438 61.902344 168.148438 C 62.660156 171.035156 63.460938 173.1875 63.804688 174.058594 C 63.90625 174.3125 64.148438 174.476562 64.425781 174.476562 L 65.566406 174.476562 C 65.960938 174.476562 66.269531 174.132812 66.226562 173.742188 C 64.445312 156.375 77.976562 160.632812 79.09375 161.011719 C 79.144531 161.03125 79.195312 161.039062 79.25 161.046875 C 94.101562 162.359375 98.175781 153.421875 98.683594 152.132812 C 98.722656 152.027344 98.789062 151.9375 98.875 151.867188 L 102.792969 148.597656 L 104.582031 147.113281 L 108.929688 143.488281 C 109.136719 143.316406 109.214844 143.035156 109.140625 142.777344 C 105.957031 132.160156 81.355469 133.867188 81.355469 133.867188 C 58.402344 136.296875 58.902344 154.824219 61.378906 165.996094 C 59.582031 166.464844 58.441406 167.875 58.175781 170.03125 C 57.96875 171.691406 58.273438 173.574219 58.757812 175.332031 L 61.070312 175.332031 " fill-opacity="1" fill-rule="nonzero"/><path fill="#3dfffc" d="M 87.136719 218.109375 C 73.160156 217.644531 69.785156 208.816406 68.96875 204.382812 C 70.890625 202.304688 73.136719 197.433594 74.011719 195.441406 C 76.109375 197.183594 78.148438 198.328125 79.855469 199.066406 C 83.710938 200.75 86.699219 200.808594 87.109375 200.808594 L 87.164062 200.808594 C 87.574219 200.808594 90.5625 200.75 94.417969 199.066406 C 96.058594 198.355469 98.007812 197.269531 100.023438 195.636719 C 100.980469 197.6875 103.171875 202.117188 105.273438 204.546875 C 104.40625 209.03125 100.9375 217.648438 87.136719 218.109375 Z M 128.03125 215.804688 L 105.878906 202.078125 C 104.207031 199.703125 102.457031 196.167969 101.589844 194.261719 C 103.328125 192.613281 105.070312 190.53125 106.664062 187.894531 C 106.742188 187.761719 106.890625 187.691406 107.042969 187.710938 C 107.285156 187.742188 107.539062 187.726562 107.800781 187.660156 C 108.648438 187.445312 109.519531 186.6875 110.320312 185.734375 L 105.347656 185.734375 C 102.367188 191.082031 98.429688 194.871094 93.636719 196.988281 C 89.988281 198.601562 87.183594 198.585938 87.152344 198.589844 L 87.109375 198.589844 C 86.707031 198.589844 76.007812 198.4375 68.921875 185.734375 L 63.953125 185.734375 C 64.753906 186.6875 65.621094 187.445312 66.46875 187.660156 C 66.734375 187.726562 66.988281 187.742188 67.230469 187.710938 C 67.382812 187.691406 67.53125 187.761719 67.609375 187.894531 C 69.132812 190.417969 70.796875 192.433594 72.460938 194.046875 L 72.441406 194.039062 C 71.324219 196.65625 69.523438 200.304688 68.160156 202.222656 L 46.242188 215.804688 C 34.699219 220.054688 34.074219 234.332031 34.074219 234.332031 C 46.867188 240.886719 87.136719 241.511719 87.136719 241.511719 C 87.136719 241.511719 127.40625 240.886719 140.199219 234.332031 C 140.199219 234.332031 139.574219 220.054688 128.03125 215.804688 " fill-opacity="1" fill-rule="nonzero"/><path fill="#3dfffc" d="M 23.121094 182.484375 L 30.4375 182.484375 L 30.4375 178.582031 L 23.121094 178.582031 L 23.121094 182.484375 " fill-opacity="1" fill-rule="nonzero"/><path fill="#3dfffc" d="M 100.832031 182.484375 L 116.4375 182.484375 L 116.4375 178.582031 L 100.832031 178.582031 L 100.832031 182.484375 " fill-opacity="1" fill-rule="nonzero"/><path fill="#3dfffc" d="M 122.335938 182.484375 L 137.9375 182.484375 L 137.9375 178.582031 L 122.335938 178.582031 L 122.335938 182.484375 " fill-opacity="1" fill-rule="nonzero"/><path fill="#3dfffc" d="M 94.941406 178.582031 L 79.335938 178.582031 L 79.335938 182.484375 L 94.941406 182.484375 L 94.941406 178.582031 " fill-opacity="1" fill-rule="nonzero"/><path fill="#3dfffc" d="M 57.832031 182.484375 L 73.4375 182.484375 L 73.4375 178.582031 L 57.832031 178.582031 L 57.832031 182.484375 " fill-opacity="1" fill-rule="nonzero"/><path fill="#3dfffc" d="M 51.9375 178.582031 L 36.335938 178.582031 L 36.335938 182.484375 L 51.9375 182.484375 L 51.9375 178.582031 " fill-opacity="1" fill-rule="nonzero"/><path fill="#3dfffc" d="M 151.148438 178.582031 L 143.835938 178.582031 L 143.835938 182.484375 L 151.148438 182.484375 L 151.148438 178.582031 " fill-opacity="1" fill-rule="nonzero"/><g fill="#ffffff" fill-opacity="1"><g transform="translate(169.455329, 177.954656)"><g><path d="M 27.996094 -11.714844 L 31.78125 0 L 41.992188 0 L 27.214844 -41.453125 L 15.558594 -41.453125 L 0.601562 0 L 10.632812 0 L 14.476562 -11.714844 Z M 21.265625 -33.28125 L 25.652344 -19.105469 L 16.820312 -19.105469 Z M 21.265625 -33.28125 "/></g></g></g><g fill="#ffffff" fill-opacity="1"><g transform="translate(214.388542, 177.954656)"><g><path d="M 30.519531 -22.40625 C 34.664062 -23.851562 36.824219 -26.734375 36.824219 -30.757812 C 36.824219 -36.285156 32.980469 -40.371094 26.253906 -41.210938 C 24.148438 -41.453125 23.070312 -41.453125 20.90625 -41.453125 L 5.105469 -41.453125 L 5.105469 0 L 20.847656 0 C 23.308594 0 24.691406 0 26.734375 -0.242188 C 32.320312 -0.960938 38.328125 -4.746094 38.328125 -12.433594 C 38.328125 -17.660156 35.804688 -21.027344 30.519531 -22.40625 Z M 14.539062 -34.121094 L 20.003906 -34.121094 C 20.964844 -34.121094 22.046875 -34.0625 22.886719 -33.941406 C 25.351562 -33.582031 26.972656 -32.261719 26.972656 -29.496094 C 26.972656 -26.734375 25.53125 -25.351562 22.949219 -24.929688 C 22.109375 -24.8125 21.144531 -24.75 20.183594 -24.75 L 14.539062 -24.75 Z M 23.851562 -7.449219 C 23.070312 -7.390625 22.109375 -7.390625 21.144531 -7.390625 L 14.539062 -7.390625 L 14.539062 -17.84375 L 20.785156 -17.84375 C 21.746094 -17.84375 22.707031 -17.84375 23.667969 -17.722656 C 26.3125 -17.480469 28.476562 -15.917969 28.476562 -12.554688 C 28.476562 -9.433594 26.3125 -7.628906 23.851562 -7.449219 Z M 23.851562 -7.449219 "/></g></g></g><g fill="#ffffff" fill-opacity="1"><g transform="translate(258.000202, 177.954656)"><g><path d="M 14.539062 0 L 14.539062 -41.453125 L 5.105469 -41.453125 L 5.105469 0 Z M 14.539062 0 "/></g></g></g><g fill="#ffffff" fill-opacity="1"><g transform="translate(279.626095, 177.954656)"><g><path d="M 19.222656 -42.292969 C 11.175781 -42.292969 4.023438 -37.789062 4.023438 -30.039062 C 4.023438 -22.109375 9.433594 -19.164062 18.324219 -16.941406 C 23.96875 -15.621094 25.890625 -13.636719 25.890625 -10.753906 C 25.890625 -7.929688 23.1875 -6.128906 19.765625 -6.128906 C 15.980469 -6.128906 12.675781 -8.171875 11.835938 -12.433594 L 2.34375 -12.433594 C 3.0625 -3.484375 9.792969 0.839844 19.945312 0.839844 C 28.234375 0.839844 35.746094 -3.484375 35.746094 -11.535156 C 35.746094 -18.082031 31.78125 -22.40625 22.648438 -24.570312 C 15.980469 -26.132812 13.878906 -27.816406 13.878906 -30.9375 C 13.878906 -33.941406 15.980469 -35.324219 18.921875 -35.324219 C 22.886719 -35.324219 25.050781 -32.859375 25.53125 -29.015625 L 35.023438 -29.015625 C 34.121094 -36.527344 29.558594 -42.292969 19.222656 -42.292969 Z M 19.222656 -42.292969 "/></g></g></g><g fill="#ffffff" fill-opacity="1"><g transform="translate(320.114088, 177.954656)"><g><path d="M 19.222656 -42.292969 C 11.175781 -42.292969 4.023438 -37.789062 4.023438 -30.039062 C 4.023438 -22.109375 9.433594 -19.164062 18.324219 -16.941406 C 23.96875 -15.621094 25.890625 -13.636719 25.890625 -10.753906 C 25.890625 -7.929688 23.1875 -6.128906 19.765625 -6.128906 C 15.980469 -6.128906 12.675781 -8.171875 11.835938 -12.433594 L 2.34375 -12.433594 C 3.0625 -3.484375 9.792969 0.839844 19.945312 0.839844 C 28.234375 0.839844 35.746094 -3.484375 35.746094 -11.535156 C 35.746094 -18.082031 31.78125 -22.40625 22.648438 -24.570312 C 15.980469 -26.132812 13.878906 -27.816406 13.878906 -30.9375 C 13.878906 -33.941406 15.980469 -35.324219 18.921875 -35.324219 C 22.886719 -35.324219 25.050781 -32.859375 25.53125 -29.015625 L 35.023438 -29.015625 C 34.121094 -36.527344 29.558594 -42.292969 19.222656 -42.292969 Z M 19.222656 -42.292969 "/></g></g></g><g fill="#3dfffc" fill-opacity="1"><g transform="translate(181.837976, 220.67401)"><g><path d="M 7.707031 -9.375 C 10.285156 -8.761719 12.042969 -8.085938 12.980469 -7.324219 C 13.625 -6.796875 13.949219 -6.125 13.949219 -5.304688 C 13.949219 -4.484375 13.773438 -3.808594 13.421875 -3.339844 C 12.542969 -2.109375 10.960938 -1.496094 8.730469 -1.496094 C 5.625 -1.496094 3.867188 -2.550781 3.488281 -4.660156 L 1.085938 -4.660156 C 1.789062 -1.289062 4.335938 0.382812 8.730469 0.382812 C 10.695312 0.382812 12.335938 -0.03125 13.65625 -0.910156 C 15.238281 -1.933594 16.058594 -3.457031 16.058594 -5.449219 C 16.058594 -7.089844 15.414062 -8.351562 14.125 -9.230469 C 13.214844 -9.875 11.75 -10.460938 9.726562 -10.988281 C 7.675781 -11.515625 6.359375 -11.957031 5.742188 -12.277344 C 4.394531 -12.953125 3.722656 -13.890625 3.75 -15.121094 C 3.75 -15.765625 3.867188 -16.320312 4.160156 -16.730469 C 4.921875 -17.875 6.269531 -18.460938 8.203125 -18.460938 C 10.929688 -18.460938 12.484375 -17.582031 12.894531 -15.882812 L 15.121094 -15.882812 C 14.386719 -18.753906 12.074219 -20.21875 8.203125 -20.21875 C 6.445312 -20.21875 4.894531 -19.75 3.605469 -18.8125 C 2.285156 -17.875 1.613281 -16.496094 1.613281 -14.621094 C 1.613281 -12.074219 3.664062 -10.316406 7.707031 -9.375 Z M 7.707031 -9.375 "/></g></g></g><g fill="#3dfffc" fill-opacity="1"><g transform="translate(203.959002, 220.67401)"><g><path d="M 14.035156 0 L 14.035156 -1.90625 L 4.25 -1.90625 L 4.25 -8.996094 L 13.742188 -8.996094 L 13.742188 -10.929688 L 4.25 -10.929688 L 4.25 -18.019531 L 14.035156 -18.019531 L 14.035156 -19.925781 L 2.199219 -19.925781 L 2.199219 0 Z M 14.035156 0 "/></g></g></g><g fill="#3dfffc" fill-opacity="1"><g transform="translate(225.49409, 220.67401)"><g><path d="M 20.484375 -6.09375 L 18.226562 -6.09375 C 17.523438 -4.804688 16.554688 -3.75 15.324219 -2.988281 C 14.09375 -2.199219 12.71875 -1.816406 11.253906 -1.816406 C 9.054688 -1.816406 7.179688 -2.609375 5.625 -4.25 C 4.101562 -5.800781 3.371094 -7.707031 3.371094 -9.933594 C 3.371094 -12.160156 4.101562 -14.066406 5.625 -15.648438 C 6.328125 -16.378906 7.179688 -16.964844 8.144531 -17.40625 C 9.082031 -17.84375 10.019531 -18.078125 10.960938 -18.078125 C 11.867188 -18.078125 12.660156 -17.960938 13.363281 -17.757812 C 15.5 -17.113281 17.113281 -15.824219 18.195312 -13.859375 L 20.453125 -13.859375 C 19.691406 -15.734375 18.488281 -17.257812 16.820312 -18.429688 C 15.121094 -19.601562 13.273438 -20.1875 11.253906 -20.1875 C 8.46875 -20.1875 6.125 -19.164062 4.191406 -17.140625 C 3.28125 -16.203125 2.578125 -15.089844 2.082031 -13.859375 C 1.554688 -12.628906 1.320312 -11.3125 1.320312 -9.933594 C 1.320312 -7.121094 2.257812 -4.746094 4.191406 -2.753906 C 6.125 -0.703125 8.46875 0.292969 11.253906 0.292969 C 13.273438 0.292969 15.121094 -0.292969 16.847656 -1.464844 C 18.519531 -2.636719 19.71875 -4.160156 20.484375 -6.09375 Z M 20.484375 -6.09375 "/></g></g></g><g fill="#3dfffc" fill-opacity="1"><g transform="translate(252.156136, 220.67401)"><g><path d="M 16.613281 -6.59375 L 16.613281 -19.925781 L 14.5625 -19.925781 L 14.5625 -6.300781 C 14.5625 -5.480469 14.417969 -4.804688 14.125 -4.25 C 13.273438 -2.609375 11.632812 -1.789062 9.199219 -1.789062 C 7.617188 -1.789062 6.359375 -2.140625 5.421875 -2.84375 C 4.335938 -3.632812 3.808594 -4.777344 3.808594 -6.300781 L 3.808594 -19.925781 L 1.757812 -19.925781 L 1.757812 -6.59375 C 1.757812 -4.425781 2.460938 -2.726562 3.867188 -1.496094 C 5.1875 -0.324219 6.972656 0.265625 9.199219 0.265625 C 11.398438 0.265625 13.15625 -0.324219 14.503906 -1.496094 C 15.910156 -2.726562 16.613281 -4.425781 16.613281 -6.59375 Z M 16.613281 -6.59375 "/></g></g></g><g fill="#3dfffc" fill-opacity="1"><g transform="translate(275.829898, 220.67401)"><g><path d="M 4.25 -9.84375 L 4.25 -17.960938 L 8.878906 -17.960938 C 10.078125 -17.960938 11.046875 -17.582031 11.78125 -16.820312 C 12.484375 -16.058594 12.863281 -15.121094 12.863281 -13.949219 C 12.863281 -12.777344 12.484375 -11.808594 11.722656 -11.019531 C 10.960938 -10.226562 10.019531 -9.84375 8.878906 -9.84375 Z M 14.914062 -13.917969 C 14.914062 -15.617188 14.269531 -17.082031 13.039062 -18.226562 C 11.839844 -19.339844 10.34375 -19.925781 8.585938 -19.925781 L 2.199219 -19.925781 L 2.199219 0 L 4.25 0 L 4.25 -7.882812 L 6.621094 -7.882812 L 12.484375 0 L 15.238281 0 L 9.082031 -7.882812 C 10.636719 -7.96875 11.957031 -8.527344 13.039062 -9.550781 C 14.269531 -10.695312 14.914062 -12.160156 14.914062 -13.917969 Z M 14.914062 -13.917969 "/></g></g></g><g fill="#3dfffc" fill-opacity="1"><g transform="translate(297.072019, 220.67401)"><g><path d="M 4.25 0 L 4.25 -19.925781 L 2.199219 -19.925781 L 2.199219 0 Z M 4.25 0 "/></g></g></g><g fill="#3dfffc" fill-opacity="1"><g transform="translate(308.821953, 220.67401)"><g><path d="M 0.585938 -18.078125 L 5.421875 -18.078125 L 5.421875 -0.0585938 L 7.472656 -0.0585938 L 7.472656 -18.078125 L 12.308594 -18.078125 L 12.308594 -19.984375 L 0.585938 -19.984375 Z M 0.585938 -18.078125 "/></g></g></g><g fill="#3dfffc" fill-opacity="1"><g transform="translate(327.0172, 220.67401)"><g><path d="M 9.902344 -9.375 L 17.433594 -19.925781 L 14.828125 -19.925781 L 8.878906 -11.398438 L 2.929688 -19.925781 L 0.292969 -19.925781 L 7.851562 -9.347656 L 7.851562 0 L 9.902344 0 Z M 9.902344 -9.375 "/></g></g></g><g fill="#3dfffc" fill-opacity="1"><g transform="translate(168.49032, 250.674008)"><g><path d="M 7.707031 -9.375 C 10.285156 -8.761719 12.042969 -8.085938 12.980469 -7.324219 C 13.625 -6.796875 13.949219 -6.125 13.949219 -5.304688 C 13.949219 -4.484375 13.773438 -3.808594 13.421875 -3.339844 C 12.542969 -2.109375 10.960938 -1.496094 8.730469 -1.496094 C 5.625 -1.496094 3.867188 -2.550781 3.488281 -4.660156 L 1.085938 -4.660156 C 1.789062 -1.289062 4.335938 0.382812 8.730469 0.382812 C 10.695312 0.382812 12.335938 -0.03125 13.65625 -0.910156 C 15.238281 -1.933594 16.058594 -3.457031 16.058594 -5.449219 C 16.058594 -7.089844 15.414062 -8.351562 14.125 -9.230469 C 13.214844 -9.875 11.75 -10.460938 9.726562 -10.988281 C 7.675781 -11.515625 6.359375 -11.957031 5.742188 -12.277344 C 4.394531 -12.953125 3.722656 -13.890625 3.75 -15.121094 C 3.75 -15.765625 3.867188 -16.320312 4.160156 -16.730469 C 4.921875 -17.875 6.269531 -18.460938 8.203125 -18.460938 C 10.929688 -18.460938 12.484375 -17.582031 12.894531 -15.882812 L 15.121094 -15.882812 C 14.386719 -18.753906 12.074219 -20.21875 8.203125 -20.21875 C 6.445312 -20.21875 4.894531 -19.75 3.605469 -18.8125 C 2.285156 -17.875 1.613281 -16.496094 1.613281 -14.621094 C 1.613281 -12.074219 3.664062 -10.316406 7.707031 -9.375 Z M 7.707031 -9.375 "/></g></g></g><g fill="#3dfffc" fill-opacity="1"><g transform="translate(190.611346, 250.674008)"><g><path d="M 19.75 -10.019531 C 19.75 -7.734375 18.929688 -5.800781 17.347656 -4.21875 C 15.734375 -2.609375 13.800781 -1.816406 11.546875 -1.816406 C 9.289062 -1.816406 7.355469 -2.609375 5.773438 -4.21875 C 4.160156 -5.800781 3.371094 -7.734375 3.371094 -10.019531 C 3.371094 -12.25 4.160156 -14.183594 5.773438 -15.792969 C 7.355469 -17.375 9.289062 -18.195312 11.546875 -18.195312 C 13.800781 -18.195312 15.734375 -17.375 17.347656 -15.792969 C 18.929688 -14.183594 19.75 -12.25 19.75 -10.019531 Z M 21.800781 -10.019531 C 21.800781 -11.429688 21.507812 -12.746094 20.980469 -14.007812 C 20.453125 -15.238281 19.71875 -16.320312 18.78125 -17.257812 C 17.84375 -18.167969 16.761719 -18.898438 15.53125 -19.425781 C 14.269531 -19.953125 12.953125 -20.246094 11.546875 -20.246094 C 10.136719 -20.246094 8.789062 -19.953125 7.558594 -19.425781 C 6.328125 -18.898438 5.246094 -18.167969 4.308594 -17.257812 C 3.371094 -16.320312 2.636719 -15.238281 2.109375 -14.007812 C 1.582031 -12.746094 1.320312 -11.429688 1.320312 -10.019531 C 1.320312 -8.613281 1.582031 -7.265625 2.109375 -6.035156 C 2.636719 -4.777344 3.371094 -3.691406 4.308594 -2.753906 C 5.246094 -1.816406 6.328125 -1.085938 7.558594 -0.558594 C 8.789062 -0.03125 10.136719 0.234375 11.546875 0.234375 C 12.953125 0.234375 14.269531 -0.03125 15.53125 -0.558594 C 16.761719 -1.085938 17.84375 -1.816406 18.78125 -2.753906 C 19.71875 -3.691406 20.453125 -4.777344 20.980469 -6.035156 C 21.507812 -7.265625 21.800781 -8.613281 21.800781 -10.019531 Z M 21.800781 -10.019531 "/></g></g></g><g fill="#3dfffc" fill-opacity="1"><g transform="translate(219.031202, 250.674008)"><g><path d="M 4.25 -2.050781 L 4.25 -19.925781 L 2.199219 -19.925781 L 2.199219 0 L 11.371094 0 L 11.371094 -2.050781 Z M 4.25 -2.050781 "/></g></g></g><g fill="#3dfffc" fill-opacity="1"><g transform="translate(236.288948, 250.674008)"><g><path d="M 16.613281 -6.59375 L 16.613281 -19.925781 L 14.5625 -19.925781 L 14.5625 -6.300781 C 14.5625 -5.480469 14.417969 -4.804688 14.125 -4.25 C 13.273438 -2.609375 11.632812 -1.789062 9.199219 -1.789062 C 7.617188 -1.789062 6.359375 -2.140625 5.421875 -2.84375 C 4.335938 -3.632812 3.808594 -4.777344 3.808594 -6.300781 L 3.808594 -19.925781 L 1.757812 -19.925781 L 1.757812 -6.59375 C 1.757812 -4.425781 2.460938 -2.726562 3.867188 -1.496094 C 5.1875 -0.324219 6.972656 0.265625 9.199219 0.265625 C 11.398438 0.265625 13.15625 -0.324219 14.503906 -1.496094 C 15.910156 -2.726562 16.613281 -4.425781 16.613281 -6.59375 Z M 16.613281 -6.59375 "/></g></g></g><g fill="#3dfffc" fill-opacity="1"><g transform="translate(259.96271, 250.674008)"><g><path d="M 0.585938 -18.078125 L 5.421875 -18.078125 L 5.421875 -0.0585938 L 7.472656 -0.0585938 L 7.472656 -18.078125 L 12.308594 -18.078125 L 12.308594 -19.984375 L 0.585938 -19.984375 Z M 0.585938 -18.078125 "/></g></g></g><g fill="#3dfffc" fill-opacity="1"><g transform="translate(278.157956, 250.674008)"><g><path d="M 4.25 0 L 4.25 -19.925781 L 2.199219 -19.925781 L 2.199219 0 Z M 4.25 0 "/></g></g></g><g fill="#3dfffc" fill-opacity="1"><g transform="translate(289.907891, 250.674008)"><g><path d="M 19.75 -10.019531 C 19.75 -7.734375 18.929688 -5.800781 17.347656 -4.21875 C 15.734375 -2.609375 13.800781 -1.816406 11.546875 -1.816406 C 9.289062 -1.816406 7.355469 -2.609375 5.773438 -4.21875 C 4.160156 -5.800781 3.371094 -7.734375 3.371094 -10.019531 C 3.371094 -12.25 4.160156 -14.183594 5.773438 -15.792969 C 7.355469 -17.375 9.289062 -18.195312 11.546875 -18.195312 C 13.800781 -18.195312 15.734375 -17.375 17.347656 -15.792969 C 18.929688 -14.183594 19.75 -12.25 19.75 -10.019531 Z M 21.800781 -10.019531 C 21.800781 -11.429688 21.507812 -12.746094 20.980469 -14.007812 C 20.453125 -15.238281 19.71875 -16.320312 18.78125 -17.257812 C 17.84375 -18.167969 16.761719 -18.898438 15.53125 -19.425781 C 14.269531 -19.953125 12.953125 -20.246094 11.546875 -20.246094 C 10.136719 -20.246094 8.789062 -19.953125 7.558594 -19.425781 C 6.328125 -18.898438 5.246094 -18.167969 4.308594 -17.257812 C 3.371094 -16.320312 2.636719 -15.238281 2.109375 -14.007812 C 1.582031 -12.746094 1.320312 -11.429688 1.320312 -10.019531 C 1.320312 -8.613281 1.582031 -7.265625 2.109375 -6.035156 C 2.636719 -4.777344 3.371094 -3.691406 4.308594 -2.753906 C 5.246094 -1.816406 6.328125 -1.085938 7.558594 -0.558594 C 8.789062 -0.03125 10.136719 0.234375 11.546875 0.234375 C 12.953125 0.234375 14.269531 -0.03125 15.53125 -0.558594 C 16.761719 -1.085938 17.84375 -1.816406 18.78125 -2.753906 C 19.71875 -3.691406 20.453125 -4.777344 20.980469 -6.035156 C 21.507812 -7.265625 21.800781 -8.613281 21.800781 -10.019531 Z M 21.800781 -10.019531 "/></g></g></g><g fill="#3dfffc" fill-opacity="1"><g transform="translate(318.327746, 250.674008)"><g><path d="M 4.25 -14.679688 L 15.441406 1.230469 L 15.441406 -19.925781 L 13.390625 -19.925781 L 13.390625 -5.273438 L 2.199219 -21.1875 L 2.199219 0 L 4.25 0 Z M 4.25 -14.679688 "/></g></g></g><g fill="#3dfffc" fill-opacity="1"><g transform="translate(341.269086, 250.674008)"><g><path d="M 7.707031 -9.375 C 10.285156 -8.761719 12.042969 -8.085938 12.980469 -7.324219 C 13.625 -6.796875 13.949219 -6.125 13.949219 -5.304688 C 13.949219 -4.484375 13.773438 -3.808594 13.421875 -3.339844 C 12.542969 -2.109375 10.960938 -1.496094 8.730469 -1.496094 C 5.625 -1.496094 3.867188 -2.550781 3.488281 -4.660156 L 1.085938 -4.660156 C 1.789062 -1.289062 4.335938 0.382812 8.730469 0.382812 C 10.695312 0.382812 12.335938 -0.03125 13.65625 -0.910156 C 15.238281 -1.933594 16.058594 -3.457031 16.058594 -5.449219 C 16.058594 -7.089844 15.414062 -8.351562 14.125 -9.230469 C 13.214844 -9.875 11.75 -10.460938 9.726562 -10.988281 C 7.675781 -11.515625 6.359375 -11.957031 5.742188 -12.277344 C 4.394531 -12.953125 3.722656 -13.890625 3.75 -15.121094 C 3.75 -15.765625 3.867188 -16.320312 4.160156 -16.730469 C 4.921875 -17.875 6.269531 -18.460938 8.203125 -18.460938 C 10.929688 -18.460938 12.484375 -17.582031 12.894531 -15.882812 L 15.121094 -15.882812 C 14.386719 -18.753906 12.074219 -20.21875 8.203125 -20.21875 C 6.445312 -20.21875 4.894531 -19.75 3.605469 -18.8125 C 2.285156 -17.875 1.613281 -16.496094 1.613281 -14.621094 C 1.613281 -12.074219 3.664062 -10.316406 7.707031 -9.375 Z M 7.707031 -9.375 "/></g></g></g></svg>